<?xml version="1.0" encoding="UTF-8" standalone="no"?>
<!-- Created with Inkscape (http://www.inkscape.org/) -->

<svg
   xmlns:dc="http://purl.org/dc/elements/1.1/"
   xmlns:cc="http://creativecommons.org/ns#"
   xmlns:rdf="http://www.w3.org/1999/02/22-rdf-syntax-ns#"
   xmlns:svg="http://www.w3.org/2000/svg"
   xmlns="http://www.w3.org/2000/svg"
   xmlns:sodipodi="http://sodipodi.sourceforge.net/DTD/sodipodi-0.dtd"
   xmlns:inkscape="http://www.inkscape.org/namespaces/inkscape"
   width="122.0853"
   height="330.2785"
   id="svg2"
   version="1.1"
   inkscape:version="0.48.2 r9819"
   sodipodi:docname="New document 1">
  <defs
     id="defs4" />
  <sodipodi:namedview
     id="base"
     pagecolor="#ffffff"
     bordercolor="#666666"
     borderopacity="1.0"
     inkscape:pageopacity="0.0"
     inkscape:pageshadow="2"
     inkscape:zoom="0.98816561"
     inkscape:cx="123.69283"
     inkscape:cy="248.06083"
     inkscape:document-units="px"
     inkscape:current-layer="layer1"
     showgrid="false"
     inkscape:window-width="1109"
     inkscape:window-height="795"
     inkscape:window-x="424"
     inkscape:window-y="88"
     inkscape:window-maximized="0"
     fit-margin-top="0"
     fit-margin-left="0"
     fit-margin-right="0"
     fit-margin-bottom="0" />
  <metadata
     id="metadata7">
    <rdf:RDF>
      <cc:Work
         rdf:about="">
        <dc:format>image/svg+xml</dc:format>
        <dc:type
           rdf:resource="http://purl.org/dc/dcmitype/StillImage" />
        <dc:title></dc:title>
      </cc:Work>
    </rdf:RDF>
  </metadata>
  <g
     inkscape:label="Layer 1"
     inkscape:groupmode="layer"
     id="layer1"
     transform="translate(-99.625,-160.92414)">
    <path
       style="fill:#000000;fill-opacity:1;fill-rule:nonzero;stroke:#000000;stroke-width:1.77165353;stroke-linejoin:round;stroke-miterlimit:4;stroke-opacity:1;stroke-dasharray:none;stroke-dashoffset:0"
       id="path3773"
       d="m 143.11494,296.08476 c 0.43084,-4.34469 1.93685,-8.52472 3.40584,-12.60914 2.20757,-4.85365 3.8361,-9.88455 5.09084,-15.0567 0.94241,-4.01121 1.27174,-8.11406 1.45669,-12.21793 0.3146,-4.83592 0.0442,-9.65094 -0.35255,-14.47001 -0.36174,-4.58691 -0.64146,-9.16785 -1.31345,-13.72277 -0.48266,-3.93229 -2.18735,-7.55476 -3.50262,-11.25731 -1.42163,-2.97825 -2.43358,-6.06373 -2.961,-9.31848 -0.44635,-3.13006 -0.45252,-6.29403 -0.48509,-9.44818 -0.084,-3.19734 -0.0138,-6.37568 0.56928,-9.52448 0.35199,-2.00905 1.15231,-3.86862 2.16553,-5.62502 9.64536,-16.72002 5.08809,-11.89479 10.52915,-17.44912 1.03066,-1.27668 2.11478,-2.45466 3.32396,-3.56009 0,0 -6.77995,16.36181 -6.77995,16.36181 l 0,0 c -1.10285,1.20136 -2.1906,2.4151 -3.19252,3.70366 -3.85668,5.65522 -1.24054,1.88445 7.31299,-12.94308 0.22886,-0.39672 -0.43307,0.80743 -0.66518,1.20226 -0.79604,1.3541 -1.76949,2.58327 -1.95606,4.20428 -0.83071,3.04539 -1.0118,6.1118 -0.87585,9.26123 -0.009,3.11299 -0.008,6.23291 0.26462,9.33635 0.38755,3.1893 1.12468,6.27063 2.65063,9.12926 1.3983,3.8149 2.84009,7.69538 3.59464,11.68312 0.85594,4.58601 1.17311,9.20755 1.39001,13.86358 0.40093,4.79385 0.86871,9.57815 0.65478,14.39724 -0.0903,4.23529 -0.37731,8.46848 -1.32833,12.61105 -1.15923,5.28171 -2.61054,10.47372 -5.03622,15.33697 -1.38497,3.70441 -2.65698,7.47161 -3.25093,11.37154 0,0 -10.70921,14.73996 -10.70921,14.73996 z"
       inkscape:connector-curvature="0" />
    <path
       style="fill:#000000;fill-opacity:1;fill-rule:nonzero;stroke:#000000;stroke-width:1.77165353;stroke-linejoin:round;stroke-miterlimit:4;stroke-opacity:1;stroke-dasharray:none;stroke-dashoffset:0"
       id="path3775"
       d="m 153.4804,274.02545 c 2.94387,-2.47748 5.12065,-5.24336 7.20842,-8.45039 -14.59262,23.96074 -8.45577,15.38877 -6.04777,9.80379 0.74825,-1.73544 1.2185,-3.56094 1.76944,-5.36436 3.20595,-9.52793 8.8662,-17.84023 13.87362,-26.50819 2.11401,-3.1538 5.2926,-5.15318 8.68458,-6.67771 3.25256,-1.49709 6.64297,-2.43661 10.17952,-2.9303 4.06684,-1.02587 8.16405,-1.79697 12.31787,-2.37226 4.02949,-0.42843 8.05273,-0.34579 12.04863,-1.04723 2.42079,-0.57593 4.85269,-1.11494 7.31317,-1.48661 l -1.46099,3.99982 -3.28892,2.27695 c -2.40913,0.39701 -7.84366,4.63239 -10.23808,5.11066 -4.01461,0.67874 -8.07915,0.56325 -12.11908,1.0426 -4.1746,0.54006 -8.21629,7.40938 -12.31986,8.30891 -3.41504,0.64192 -6.67967,1.69467 -9.79537,3.25608 -3.18006,1.54669 -5.85689,3.81934 -7.62916,6.92125 15.4094,-26.76652 5.48569,-10.60869 3.18182,-3.76809 -0.59398,1.79321 -0.92333,3.66073 -1.56759,5.43406 -2.57927,7.09958 -10.36776,13.8052 -11.30555,20.33206 -2.25314,3.19993 -5.049,5.88876 -7.49173,8.93386 z"
       inkscape:connector-curvature="0"
       sodipodi:nodetypes="ccscccccccccccccccsccc" />
    <path
       style="fill:#000000;fill-opacity:1;fill-rule:nonzero;stroke:#000000;stroke-width:1.77165353;stroke-linejoin:round;stroke-miterlimit:4;stroke-opacity:1;stroke-dasharray:none;stroke-dashoffset:0"
       id="path3777"
       d="m 152.57893,282.39725 c -0.24668,2.29459 0.17878,4.54561 0.55113,6.79761 0.30359,2.59723 1.57611,4.89555 2.85489,7.12873 1.55768,2.25246 3.16914,4.47134 4.75744,6.71053 2.16044,3.10273 4.50057,6.03774 6.28378,9.38313 1.6687,2.96774 2.15461,6.263 2.44535,9.59803 0.46331,3.79618 0.89981,7.58055 1.08743,11.40229 0.22093,4.65203 0.20064,9.31087 0.19312,13.96682 -0.01,5.02142 0.1178,10.03849 -0.28662,15.04711 -0.31846,4.68582 -0.7133,9.35568 -1.86848,13.91679 -2.8721,9.37753 -8.44483,17.04671 -13.49049,25.52914 -2.23211,2.50388 -4.61442,4.84696 -7.28054,6.88784 -3.42449,3.14992 -7.02143,6.08312 -10.43777,9.24484 -3.91892,3.56605 -7.53784,7.48564 -10.61252,11.80196 -3.48612,6.61929 -0.84094,1.53007 6.34378,-10.77094 0.4152,-0.71088 -0.80887,1.43429 -1.19648,2.16058 -1.14096,2.13786 -1.97061,4.23815 -2.68887,6.54865 -1.12331,4.28513 -1.28648,8.72229 -1.40322,13.1255 -0.0216,3.84258 0.0105,7.68526 0.0164,11.52786 -0.0104,4.29219 -0.0975,8.57441 0.26763,12.85475 0.55367,3.51948 0.60773,7.09554 1.24924,10.59818 0,0 -10.0358,14.45687 -10.0358,14.45687 l 0,0 c -0.89975,-3.56503 -1.01612,-7.19451 -1.34188,-10.84764 -0.40528,-4.27188 -0.55516,-8.53438 -0.47198,-12.82852 -0.0247,-3.8712 -0.0586,-7.74271 -0.003,-11.61379 0.0502,-4.51872 0.22696,-9.0519 1.1324,-13.49433 0.7889,-3.24076 1.87982,-6.05158 3.53754,-8.95371 9.5271,-16.67895 6.28651,-11.61047 11.02059,-18.90466 3.32898,-4.14979 6.89348,-8.10686 10.88747,-11.6327 3.53671,-3.18476 7.10985,-6.32819 10.64875,-9.5104 2.48479,-2.18783 4.90753,-4.45818 6.899,-7.11948 -15.49962,27.2778 -6.06706,11.78094 -3.70392,4.799 1.40203,-4.48658 1.97378,-9.11903 2.20551,-13.80815 0.43024,-4.9902 0.53997,-9.96966 0.42197,-14.98131 -0.0265,-4.59905 -0.0465,-9.19924 -0.21101,-13.79581 -0.20109,-3.75794 -0.5354,-7.50531 -1.17799,-11.21686 -0.17095,-3.1475 -0.44404,-6.31251 -1.84528,-9.19299 -1.68198,-3.31178 -3.61899,-6.37376 -6.07011,-9.18533 -1.73774,-2.21012 -3.34553,-4.51554 -4.96774,-6.80545 -1.3026,-2.34645 -3.04194,-4.71073 -3.45524,-7.39059 -0.3191,-2.25516 -0.93672,-4.46104 -0.92708,-6.74368 0,0 10.67281,-14.68987 10.67281,-14.68987 z"
       inkscape:connector-curvature="0" />
    <path
       style="fill:#000000;fill-opacity:1;fill-rule:nonzero;stroke:#000000;stroke-width:1.77165353;stroke-linejoin:round;stroke-miterlimit:4;stroke-opacity:1;stroke-dasharray:none;stroke-dashoffset:0"
       id="path3779"
       d="m 150.65176,274.88161 c -0.67475,-3.32901 -1.99371,-6.52373 -3.30088,-9.6527 -1.15714,-2.30263 -2.5453,-4.4984 -4.14994,-6.51524 -1.40696,-1.87721 -3.20698,-3.34293 -5.20637,-4.53966 -1.59247,-1.10474 -3.31795,-1.90114 -5.09178,-2.64984 -1.58203,-0.87647 -2.84,-2.18498 -4.32185,-3.2268 -1.51536,-0.84681 -2.2977,-2.27899 -3.28316,-3.61271 -1.37833,-1.63735 -2.93804,-3.10263 -4.29679,-4.7577 -1.40032,-1.9599 -3.16714,-3.53222 -5.04426,-5.01768 -2.11506,-1.76359 -4.62371,-2.74209 -7.25945,-3.41032 -2.25379,-0.62827 -4.51713,-1.32803 -6.874,-1.29838 -0.40457,0.0243 -0.80913,0.0486 -1.2137,0.0729 0,0 -0.10665,-14.71509 -0.10665,-14.71509 l 0,0 c 0.43645,-0.0368 0.8729,-0.0735 1.30935,-0.11024 2.50865,-0.008 4.87916,0.60735 7.26241,1.35353 2.77108,0.75079 5.60826,1.62766 7.84117,3.50594 1.95341,1.46173 4.03023,2.83643 5.39862,4.90688 1.32502,1.66169 2.7677,3.19195 4.27807,4.69024 0.0744,0.079 1.11444,1.1697 1.20653,1.31719 0.10524,0.16856 0.10049,0.38753 0.18931,0.56529 0.34512,0.69067 0.92155,1.26701 1.52662,1.72605 0.75326,0.57358 1.61911,0.96081 2.34129,1.56958 1.59458,1.34416 -0.35864,-0.1877 1.02097,1.14566 0.18914,0.18281 0.42279,0.31308 0.63418,0.46962 1.82228,0.81794 3.65059,1.53837 5.32186,2.65946 2.04221,1.36554 4.12209,2.764 5.69234,4.6803 1.69047,2.13739 3.28049,4.31058 4.5111,6.75725 1.35752,3.03783 2.43652,6.19443 3.66222,9.27411 0,0 -2.04721,14.81233 -2.04721,14.81233 z"
       inkscape:connector-curvature="0" />
  </g>
</svg>
