<?xml version="1.0" encoding="utf-8"?> <!-- Generator: IcoMoon.io --> <!DOCTYPE svg PUBLIC "-//W3C//DTD SVG 1.1//EN" "http://www.w3.org/Graphics/SVG/1.1/DTD/svg11.dtd"> <svg fill="#000000" xmlns:xlink="http://www.w3.org/1999/xlink" xmlns="http://www.w3.org/2000/svg" viewBox="0 0 32 32" height="32" width="32"><g><path d="M 18.784,20.896q 0.544,0 1.040,0.16t 1.104,0.32q 1.024,0.544 2.048,0.544q 0.096,0 0.192,0.016t 0.288,0t 0.544-0.096t 0.96-0.24l0,0.256 q-0.288,0 -0.528,0.064t-0.48,0.16t-0.48,0.16t-0.528,0.032q-0.672,0 -1.248-0.288t-1.088-0.416q-0.48-0.192 -0.96-0.304t-0.96-0.112q-0.448,0.032 -0.848,0.096t-0.784,0.048t-0.784-0.128t-0.784-0.4q-0.928-0.352 -1.952-0.656t-2.112-0.304q-0.608,0.096 -1.184,0.256t-1.216,0.288 q-1.6-0.064 -3.088,0.080t-3.024,0.464q-0.576,0.096 -1.152,0.112t-1.152,0.016l0-0.256 q 1.056,0.032 1.936-0.064t 1.696-0.224t 1.648-0.24t 1.792-0.112q 0.64,0 1.2-0.016t 1.168-0.176q 0.384-0.096 0.704-0.24t 0.8-0.144q 0.704,0 1.392,0.144t 1.344,0.368t 1.296,0.496t 1.28,0.496l 0.032,0 q 0.48,0 0.928-0.080t 0.96-0.080zM 23.488,17.44q 0.768,0.128 1.472,0.416l0,0.224 q-0.768-0.256 -1.472-0.4t-1.568-0.144 q-0.832,0 -1.664,0.048t-1.568,0.464q-0.384-0.064 -0.816-0.432t-0.848-0.464l-1.952-0.48q-0.064-0.064 -0.144-0.112t-0.256-0.144t-0.48-0.272t-0.816-0.528l-0.032,0 l-1.12-0.256l-1.12,0 q-0.928,0 -1.76,0.352t-1.664,0.768l-1.12,0 q-0.256,0 -0.544,0.016t-0.544,0.048l-1.152,0 q-0.928,0 -1.888,0.032t-1.824-0.288l0-0.288 q 0.256,0.096 0.464,0.16t 0.528,0.128q 0.384,0.064 0.624,0.080t 0.528,0.080l 1.376,0 q 0.736-0.16 1.632-0.208 t 1.76,0.048q 0.928-0.416 1.808-0.8t 1.84-0.32q 0.896,0 1.648,0.128t 1.424,0.672q 0.032,0 0.16,0.080t 0.416,0.208t 0.768,0.288t 1.28,0.352q 0.48,0.096 0.88,0.368t 0.784,0.56l 0.16,0 q 0.288,0 0.56-0.16t 0.656-0.224q 0.32-0.032 0.784-0.096t 0.96-0.096t 0.976,0.016t 0.864,0.176zM 23.072,13.664q-0.064,0.096 -0.24,0.416t-0.272,0.448q0,1.856 -0.016,1.92t-0.016,0.096l-0.096,0 l-0.032-0.032l0-2.048 l-0.48-0.8l0-0.16 q 0.096,0 0.192,0.128 t 0.16,0.272t 0.128,0.256t 0.128,0.112q 0.096-0.16 0.224-0.464t 0.32-0.304l0,0.16 zM 19.136,13.664q-0.064,0.096 -0.24,0.416t-0.272,0.448q0,1.856 -0.016,1.92t-0.016,0.096l-0.096,0 l-0.032-0.032l0-2.048 l-0.48-0.8l0-0.16 q 0.096,0 0.192,0.128t 0.16,0.272t 0.128,0.256t 0.128,0.112q 0.096-0.16 0.224-0.464t 0.32-0.304l0,0.16 zM 8.608,16.512q-0.064,0.064 -0.144,0.24t-0.144,0.24l0,1.12 l-0.064,0 l-0.032-0.032l0-1.12 l-0.256-0.448l0-0.096 q 0.096,0 0.192,0.224t 0.16,0.224q 0.064-0.096 0.128-0.272t 0.16-0.176 l0,0.096 zM 2.656,17.216q-0.064,0.064 -0.144,0.24t-0.144,0.24l0,1.12 l-0.064,0 l-0.032-0.032l0-1.12 l-0.256-0.448l0-0.096 q 0.096,0 0.192,0.224t 0.16,0.224q 0.064-0.096 0.128-0.272t 0.16-0.176l0,0.096 zM 5.6,18.144q-0.064,0.064 -0.144,0.24t-0.144,0.24l0,1.12 l-0.064,0 l-0.032-0.032l0-1.12 l-0.256-0.448l0-0.096 q 0.096,0 0.192,0.224t 0.16,0.224q 0.064-0.096 0.128-0.272t 0.16-0.176l0,0.096 zM 9.376,17.952q-0.064,0.064 -0.144,0.24t-0.144,0.24l0,1.12 l-0.064,0 l-0.032-0.032l0-1.12 l-0.256-0.448l0-0.096 q 0.096,0 0.192,0.224 t 0.16,0.224q 0.064-0.096 0.128-0.272t 0.16-0.176l0,0.096 z"></path></g></svg>