<?xml version="1.0" encoding="utf-8"?> <!-- Generator: IcoMoon.io --> <!DOCTYPE svg PUBLIC "-//W3C//DTD SVG 1.1//EN" "http://www.w3.org/Graphics/SVG/1.1/DTD/svg11.dtd"> <svg fill="#000000" xmlns:xlink="http://www.w3.org/1999/xlink" xmlns="http://www.w3.org/2000/svg" viewBox="0 0 32 32" height="32" width="32"><g><path d="M 20.512,20.576q-1.152-0.096 -1.872-0.688t-1.008-1.408t-0.176-1.728t 0.592-1.664t 1.28-1.216t 1.92-0.4q 1.536,0.096 2.384,1.104t 0.944,2.24t-0.608,2.32t-2.24,1.376l0,4.288 l 3.552,0 l0,0.8 l-25.216,0 l0-0.8 l 3.488,0 l0-4.288 q-1.152-0.096 -1.872-0.672t-1.008-1.392t-0.192-1.728t 0.576-1.68t 1.28-1.232t 1.92-0.4q 1.024,0.064 1.744,0.56t 1.12,1.216t 0.464,1.568t-0.224,1.6t-0.928,1.328t-1.664,0.768 l0,4.352 l 7.264,0 l0-4.224 q-1.152-0.096 -1.872-0.688t-1.008-1.408t-0.192-1.728t 0.576-1.664t 1.28-1.216t 1.92-0.4q 1.536,0.096 2.384,1.104t 0.944,2.24t-0.592,2.32t-2.224,1.376l0,4.288 l 7.296,0 l0-4.224 l-0.032,0 z"></path></g></svg>