<?xml version="1.0" encoding="utf-8"?> <!-- Generator: IcoMoon.io --> <!DOCTYPE svg PUBLIC "-//W3C//DTD SVG 1.1//EN" "http://www.w3.org/Graphics/SVG/1.1/DTD/svg11.dtd"> <svg fill="#000000" xmlns:xlink="http://www.w3.org/1999/xlink" xmlns="http://www.w3.org/2000/svg" viewBox="0 0 32 32" height="32" width="32"><g><path d="M 11.264,23.968l 0.016-0.048t 0.064-0.176t 0.176-0.416t 0.384-0.768q-0.032-0.032 0.224-0.496t 0.608-1.008t 0.768-1.008t 0.704-0.464q 0.16,0 0.512,0.064t 0.576,0.064l 0.064,0 q 0.32,0.288 0.64,0.672t 0.544,0.736q 0.096,0.192 0.24,0.432t 0.288,0.528t 0.24,0.576t 0.096,0.512q0,0.352 -0.656,0.768t-1.488,0.8t-1.584,0.64t-0.944,0.256q-0.64,0 -1.056-0.48t-0.416-1.184zM 12.256,24.064q 0.064,0 0.128,0.16q0,0.064 0.064,0.224t 0.064,0.224 q 0.224,0 0.848-0.16t 1.264-0.4t 1.136-0.528t 0.496-0.576l0-0.032 q-0.032-0.256 -0.208-0.64t-0.432-0.736t-0.544-0.592t-0.512-0.24q-0.16,0 -0.432,0.24t-0.4,0.656q-0.128,0.192 -0.368,0.512t-0.48,0.672t-0.432,0.672t-0.192,0.512l0,0.032 zM0,21.856q0-0.128 0.352-0.384t 0.8-0.496t 0.896-0.448t 0.608-0.272q 0.128-0.064 0.608-0.176t 1.056-0.224t 1.088-0.192t 0.704-0.080q 0.352,0 0.528,0.384t 0.256,0.848t 0.112,0.848 t 0.128,0.384q-0.352,0.256 -0.752,0.544t-0.816,0.544t-0.864,0.432t-0.928,0.176l-0.544,0 q-0.544,0 -1.104-0.048t-1.040-0.224t-0.784-0.56t-0.304-1.056zM 2.144,22.688l 1.952,0.128q 0.416,0 0.832-0.32t 0.672-0.448q 0.32-0.064 0.384-0.304t 0.064-0.464l-0.16-0.672q-1.216,0.064 -2.528,0.464t-2.24,1.104l0,0.032 q0,0.352 0.256,0.352zM 19.968,20.256q 0.16-0.128 0.432-0.512t 0.576-0.784t 0.656-0.704t 0.672-0.304q 0.256,0 0.8,0.304 t 1.072,0.752t 0.928,1.008t 0.4,1.040q0,0.288 -0.176,0.56t-0.528,0.432q-0.064,0.096 -0.24,0.128l-0.352,0.064t-0.336,0.032l-0.16,0 q-0.064,0 -0.336-0.048t-0.368-0.048q-0.64-0.096 -1.040-0.128t-0.848-0.512q-0.064-0.096 -0.208-0.288t-0.336-0.416t-0.368-0.384t-0.24-0.192zM 7.040,19.52q0-0.288 0.352-0.688t 0.832-0.768t 0.976-0.64t 0.784-0.272t 0.64,0.368t 0.64,0.848t 0.496,0.976 t 0.208,0.752q-0.256,0 -0.448,0.208t-0.368,0.464t-0.368,0.512t-0.448,0.384l-0.48,0 q-0.064,0.032 -0.336,0.080t-0.336,0.048q-0.096,0.032 -0.528,0.064t-0.624,0.064q-0.288-0.096 -0.48-0.384t-0.304-0.64t-0.16-0.736t-0.048-0.64zM 22.176,21.12q 0.352,0.096 0.768,0.128t 0.8,0.032q 0.48,0 0.48-0.512q0-0.128 -0.224-0.416t-0.528-0.576t-0.608-0.496t-0.464-0.208q-0.128,0 -0.288,0.176t-0.32,0.384t-0.384,0.56 q0,0.416 0.272,0.544t 0.496,0.384zM 8.416,20.896q 0.064,0 0.128,0.016t 0.16,0.016q 0.288,0 0.656-0.080t 0.704-0.24t 0.576-0.416t 0.24-0.608q0-0.064 -0.144-0.304t-0.32-0.48t-0.352-0.432t-0.272-0.192q-0.128,0 -0.432,0.192t-0.624,0.432t-0.56,0.512t-0.24,0.4zM 2.368,11.968q0-0.192 0.096-0.368t 0.352-0.208l 4.544-0.896l 0.576-0.032q 0.512,0 1.008,0.24t 0.752,0.688l 0.032,0.512q0,0.512 -0.192,0.928 t-0.192,0.864q0,0.064 -0.064,0.272t-0.16,0.448t-0.192,0.448t-0.128,0.24q-0.032,0.16 -0.16,0.352q-0.16,0.384 -0.272,0.672t-0.32,0.448t-0.56,0.24t-0.96,0.080q-0.192,0 -0.48-0.048t-0.576-0.128t-0.512-0.192t-0.32-0.272l-1.728-2.432q-0.224-0.352 -0.384-0.912t-0.16-0.944zM 3.456,12.48q 0.032,0.288 0.256,0.752t 0.512,0.944t 0.608,0.896t 0.576,0.544q 0.256,0.16 0.512,0.288t 0.544,0.128l 0.192,0 q 0.096-0.032 0.4-0.064t 0.304-0.096 q 0.16-0.032 0.4-0.592t 0.448-1.232t 0.368-1.28t 0.16-0.768q0-0.32 -0.4-0.464t-0.656-0.144q-0.576,0 -1.2,0.224t-1.232,0.288q-0.032,0.032 -0.128,0.032q-0.128,0 -0.256-0.016t-0.192-0.016l-0.032,0 q-0.192,0.064 -0.64,0.208t-0.544,0.208l0,0.16 zM 15.904,13.92q0-0.128 0.080-0.448t 0.192-0.672t 0.208-0.672t 0.16-0.448q 0.096-0.288 0.32-0.928t 0.512-1.296t 0.576-1.152t 0.48-0.496l 1.28,0 q 0.448,0 0.736,0.624t 0.448,1.424t 0.224,1.584 t 0.064,1.072q0,0.544 -0.064,1.072t-0.224,0.88q-0.096,0.48 -0.592,0.736t-1.12,0.384t-1.248,0.16t-1.040,0.032l-0.128,0 q-0.352-0.32 -0.608-0.704t-0.256-0.864l0-0.288 zM 17.184,14.592q 0.544,0.16 1.248,0.16q 0.352,0 0.672-0.064t 0.608-0.224q 0.16-0.16 0.192-0.336t 0.032-0.368l-0.064-0.928q0-0.256 0.096-0.512q-0.032-0.352 -0.016-0.944t-0.048-1.168t-0.288-0.992t-0.704-0.416q0,0.352 -0.336,0.8t-0.56,0.736q-0.064,0.288 -0.096,0.608t-0.128,0.576 q-0.064,0.256 -0.224,0.576t-0.304,0.64t-0.256,0.64t-0.112,0.544q0,0.352 0.288,0.672z"></path></g></svg>