<?xml version="1.0" encoding="utf-8"?> <!-- Generator: IcoMoon.io --> <!DOCTYPE svg PUBLIC "-//W3C//DTD SVG 1.1//EN" "http://www.w3.org/Graphics/SVG/1.1/DTD/svg11.dtd"> <svg fill="#000000" xmlns:xlink="http://www.w3.org/1999/xlink" xmlns="http://www.w3.org/2000/svg" viewBox="0 0 32 32" height="32" width="32"><g><path d="M 17.76,6.912q-0.128-0.224 -0.128-0.48q0-0.416 0.256-0.688t 0.608-0.272q 0.384,0 0.64,0.48q 0.032,0.064 0.080,0.144t 0.112,0.144q 0.192,0.096 0.336,0.224t 0.4,0.192l 0.064,0 q 0.16,0 0.352-0.096q 0.128-0.128 0.272-0.24t 0.272-0.208q 0.16-0.16 0.32-0.288l 0.32-0.256l 0.192-0.192q 0.192-0.16 0.48-0.16q 0.352,0 0.608,0.288t 0.256,0.608q0,0.192 -0.096,0.384t-0.32,0.32q-0.256,0.256 -0.56,0.528t-0.592,0.496q0,0.352 0.128,0.576t 0.256,0.512l 0.128,0.128 q 0.288,0.288 0.288,0.608q0,0.352 -0.24,0.608t-0.592,0.256t-0.64-0.288l-3.296-3.36zM 22.304,17.856q-0.128,0.224 -0.32,0.32t-0.384,0.096q-0.352,0 -0.624-0.256t-0.272-0.608q0-0.256 0.16-0.512l 0.384-0.64q 0.032-0.064 0.032-0.096q0-0.064 0.064-0.096q 0.096-0.256 0.176-0.672t 0.192-0.832t 0.256-0.8t 0.368-0.608q 0.16-0.192 0.352-0.256t 0.384-0.064q 0.352,0 0.624,0.208t 0.272,0.592l-0.032,0.224q-0.064,0.288 -0.144,0.56t-0.176,0.528l 0.48,0.256q 0.416,0 0.768,0.080 t 0.512,0.528q 0.256,0.256 0.256,0.576q0,0.352 -0.208,0.608t-0.56,0.256q-0.224,0 -0.352-0.032q-0.384-0.064 -0.736-0.24t-0.672-0.368l-0.064-0.032q-0.16,0.352 -0.352,0.64t-0.384,0.64zM 5.248,10.944q-0.288,0.224 -0.544,0.224q-0.352,0 -0.592-0.288t-0.24-0.608q0-0.416 0.384-0.672q 0.16-0.16 0.352-0.272t 0.384-0.272l-0.064-0.128q-0.576-0.256 -0.912-0.768t-0.336-0.96q0-0.32 0.192-0.544t 0.608-0.224q 0.096,0 0.224,0.032l 0.256,0.064l 0.128,0.096q 0.16,0.064 0.352,0.32 q 0.16,0.256 0.384,0.416t 0.448,0.416q 0.256-0.192 0.528-0.4t 0.56-0.368q 0.224-0.192 0.48-0.192q 0.352,0 0.608,0.288t 0.256,0.608q0,0.192 -0.096,0.4t-0.32,0.336q-0.352,0.16 -0.688,0.48t-0.688,0.576l-0.16,0.16q-0.352,0.352 -0.704,0.688t-0.8,0.592zM 11.648,6.88q-0.384,0 -0.608-0.272t-0.224-0.592q0-0.288 0.176-0.544t 0.592-0.288q 0.32,0 0.48-0.064q 0.128-0.032 0.256-0.080t 0.224-0.112q-0.064-0.256 -0.064-0.512l0-0.512 l0-0.448 q0-0.448 0.272-0.656t 0.592-0.208t 0.576,0.208t 0.256,0.656l0,0.192 q 0.064,0.416 0.064,0.832q0,0.384 0.192,0.448q 0.288-0.064 0.576-0.064l 0.64,0 q 0.448,0 0.656,0.272t 0.208,0.592t-0.208,0.576t-0.656,0.256l-0.352,0 q-0.896,0 -1.776,0.112t-1.744,0.208l-0.128,0 zM 16.96,23.072q-0.16,0.192 -0.32,0.272t-0.32,0.080q-0.32,0 -0.592-0.256t-0.272-0.608q0-0.288 0.224-0.608q 0.672-0.736 1.504-1.312t 1.728-1.088q 0.128-0.064 0.224-0.128t 0.224-0.064 q 0.352,0 0.608,0.272t 0.256,0.624q0,0.192 -0.112,0.4t-0.368,0.336q-0.128,0.096 -0.272,0.16t-0.272,0.128q 0.288,0.288 0.544,0.608t 0.48,0.672q 0.16,0.192 0.16,0.512q0,0.352 -0.272,0.608t-0.624,0.256q-0.192,0 -0.384-0.096t-0.32-0.352q-0.192-0.352 -0.448-0.64t-0.544-0.544l 0.224,0 l0-0.032 q-0.064-0.064 -0.096-0.064t-0.064-0.032q-0.512,0.384 -0.896,0.896zM 3.2,14.112q 0.064-0.32 0.208-0.448t 0.336-0.192l 0.128,0 q 0.256,0 0.528,0.224t 0.368,0.576l0,0.384 q-0.032,0.16 -0.032,0.48l0,0.288 q0,0.096 0.064,0.256q 0.096,0.448 0.288,0.896t 0.32,0.896l 0.064,0.384q0,0.32 -0.208,0.56t-0.528,0.304l-0.16,0 q-0.256,0 -0.464-0.112t-0.304-0.432q-0.064-0.128 -0.112-0.272t-0.112-0.304q-0.352,0.16 -0.704,0.288t-0.704,0.192q-0.064,0.064 -0.128,0.064q-0.032,0 -0.096,0.032l-0.16,0 q-0.352,0 -0.576-0.192t-0.288-0.48l0-0.16 q0-0.512 0.48-0.768l 1.696-0.608q-0.096-0.416 -0.096-0.8q0-0.512 0.192-1.056zM 7.456,22.976 q-0.48-0.224 -0.48-0.704q0-0.352 0.224-0.624t 0.608-0.272l 0.192,0 q 0.128,0 0.224,0.064q 0.32,0.16 0.672,0.256t 0.72,0.176t 0.768,0.192t 0.88,0.336q 0.032,0 0.064,0.032q 0.448,0 0.656,0.256t 0.208,0.608q0,0.32 -0.224,0.576t-0.672,0.256q-0.352-0.064 -0.752-0.144t-0.72-0.24l-0.192,0.576t-0.192,0.608q-0.096,0.352 -0.304,0.48t-0.464,0.128q-0.352,0 -0.624-0.24t-0.272-0.624l0-0.128 q0-0.096 0.032-0.192q 0.064-0.288 0.176-0.544t 0.208-0.512 q-0.192-0.064 -0.384-0.16t-0.352-0.16z"></path></g></svg>